<svg width="336" height="124" viewBox="0 0 336 124" fill="none" xmlns="http://www.w3.org/2000/svg">
<g clip-path="url(#clip0_448_944)">
<path fill-rule="evenodd" clip-rule="evenodd" d="M61.5616 24.5181L70.1346 58.0929L82.2617 54.9963C83.1343 54.7735 83.8336 55.7271 83.3589 56.4924L57.7568 97.7614C57.2922 98.5103 56.1562 98.3356 55.9382 97.4816L47.3651 63.9069L35.238 67.0035C34.3655 67.2262 33.6661 66.2726 34.1408 65.5074L59.7429 24.2383C60.2075 23.4894 61.3435 23.6641 61.5616 24.5181Z" fill="#00F144"/>
</g>
<path d="M115.454 80.4313C106.309 80.4313 100.142 75.3273 100 67.6713H105.317C105.458 72.35 109.499 75.4691 115.454 75.4691C121.267 75.4691 125.095 73.2006 125.095 69.798C125.095 66.8207 123.11 65.5447 115.099 63.7016C105.317 61.504 102.268 59.1647 102.268 53.7771C102.268 47.6807 107.514 43.5692 115.454 43.5692C121.834 43.5692 127.363 47.1845 129.277 52.572L124.102 53.848C123.039 50.658 119.565 48.5314 115.454 48.5314C110.917 48.5314 107.94 50.4454 107.94 53.3518C107.94 55.762 109.924 57.038 116.304 58.5976C127.221 60.866 130.695 63.4889 130.695 69.5144C130.695 76.0362 124.598 80.4313 115.454 80.4313Z" fill="white"/>
<path d="M134.318 92.9077V44.2781H139.989V50.3036C142.754 46.2629 147.929 43.5692 152.962 43.5692C163.454 43.5692 170.472 50.9416 170.472 62.0002C170.472 73.0589 163.454 80.4313 152.962 80.4313C147.929 80.4313 142.754 77.7375 139.989 73.6969V92.9077H134.318ZM152.395 75.4691C159.838 75.4691 164.801 70.0815 164.801 62.0002C164.801 53.9189 159.838 48.5314 152.395 48.5314C144.952 48.5314 139.989 53.9189 139.989 62.0002C139.989 70.0815 144.952 75.4691 152.395 75.4691Z" fill="white"/>
<path d="M190.423 80.4313C180.073 80.4313 173.126 73.0589 173.126 62.0002C173.126 50.9416 180.073 43.5692 190.423 43.5692C195.243 43.5692 200.276 46.2629 203.041 50.2327V44.2781H208.712V79.7224H203.041V73.7677C200.276 77.7375 195.243 80.4313 190.423 80.4313ZM190.99 75.4691C198.221 75.4691 203.041 70.0815 203.041 62.0002C203.041 53.9189 198.221 48.5314 190.99 48.5314C183.688 48.5314 178.797 53.9189 178.797 62.0002C178.797 70.0815 183.688 75.4691 190.99 75.4691Z" fill="white"/>
<path d="M214.713 79.7224V44.2781H220.384V49.1694C223.291 45.3414 226.552 43.5692 230.521 43.5692C231.585 43.5692 232.719 43.8527 233.428 44.2781V48.5314H231.018C224.638 48.5314 220.384 52.7138 220.384 59.0229V79.7224H214.713Z" fill="white"/>
<path d="M237.292 79.7224V31.0928H242.964V59.6609L258.276 44.2781H266.215L251.399 58.952L268.129 79.7224H260.898L247.359 62.9218L242.964 67.246V79.7224H237.292Z" fill="white"/>
<path d="M271.571 79.7224V44.2781H277.242V49.1694C280.149 45.3414 283.409 43.5692 287.379 43.5692C288.443 43.5692 289.577 43.8527 290.286 44.2781V48.5314H287.875C281.495 48.5314 277.242 52.7138 277.242 59.0229V79.7224H271.571Z" fill="white"/>
<rect x="294.5" y="71" width="9" height="9" fill="#00F144"/>
<defs>
<clipPath id="clip0_448_944">
<rect width="53.5" height="76" fill="white" transform="translate(32 24)"/>
</clipPath>
</defs>
</svg>
